<?xml version="1.0" encoding="utf-8"?>
<svg viewBox="0 0 125 125" fill="none" xmlns="http://www.w3.org/2000/svg">
    <rect x="-0.005" y="-0.01" width="125.026" height="124.964"
        style="fill: rgb(21, 21, 21); stroke-width: 442.561; vector-effect: non-scaling-stroke;" />
    <path
        d="M77.813 59.7945L99.3706 55.8743H116.656V69.7521H99.3706V75.7499L107.139 74.4564V83.8649L99.3706 84.2371V91.1562L115.49 88.8041L116.656 103.309H86.7468L79.9493 97.6246L81.8915 70.9671L77.813 59.7945Z"
        fill="white" />
    <path
        d="M56.3829 72.1281L75.8564 69.2656V104.002L55.8735 100.573L58.6454 82.4527L56.3829 72.1281Z"
        fill="white" />
    <path fill-rule="evenodd" clip-rule="evenodd"
        d="M23.528 55.1948L8.44897 65.1986V104.001H37.1709L51.4122 94.9826V72.7772C51.4122 62.1672 35.4955 56.559 23.528 55.1948ZM25.8218 69.0088V93.0577L33.68 91.4443V75.279C33.68 71.8951 29.4366 69.0088 25.8218 69.0088Z"
        fill="white" />
    <path
        d="M91.8101 23.1005L104.194 20.8484V41.117L114.794 39.7657L115.463 48.0984H96.9423L93.0373 44.8329L94.153 29.5188L91.8101 23.1005Z"
        fill="white" />
    <path fill-rule="evenodd" clip-rule="evenodd"
        d="M58.0225 20.8484C52.8476 20.8484 46.7527 21.8847 43.7628 22.8058C41.1154 26.951 38.1279 40.1924 38.1279 44.4527C40.3052 47.0506 44.4514 48.7107 47.1008 49.7714C47.387 49.886 47.6558 49.9936 47.9027 50.0947C52.3852 49.1736 60.0901 46.0647 62.8524 44.5678C62.8524 38.8107 62.8524 29.8295 58.0225 20.8484ZM53.9816 40.2792L52.5002 41.5879C52.377 41.7122 52.2099 41.7821 52.0356 41.7821H50.2183C50.044 41.7821 49.8769 41.7122 49.7537 41.5879L48.2548 40.2792H45.2056C45.0313 40.2792 44.8642 40.2094 44.741 40.085C44.6178 39.9606 44.5486 39.792 44.5486 39.6161V35.7562C44.5486 32.0938 47.4898 29.125 51.1182 29.125C54.7466 29.125 57.6879 32.0938 57.6879 35.7562V39.6161C57.6879 39.792 57.6186 39.9606 57.4954 40.085C57.3722 40.2094 57.2051 40.2792 57.0309 40.2792H53.9816ZM52.6234 37.7657C52.5746 37.4487 52.5746 36.5463 53.5745 35.9C54.5744 35.2537 55.7572 36.0464 56.0865 36.6439C56.4157 37.2414 56.2938 38.2047 55.6963 38.4486C55.0988 38.6925 54.3183 38.6681 53.6842 38.6315C53.0501 38.5949 52.6721 38.0828 52.6234 37.7657ZM48.6617 35.9C49.6616 36.5463 49.6616 37.4487 49.6128 37.7657C49.564 38.0828 49.186 38.5949 48.5519 38.6315C47.9178 38.6681 47.1374 38.6925 46.5399 38.4486C45.9424 38.2047 45.8205 37.2414 46.1497 36.6439C46.4789 36.0464 47.6618 35.2537 48.6617 35.9ZM50.5675 38.3162C50.2817 38.2643 50.7233 37.342 51.087 37.342C51.4508 37.342 51.9703 38.1344 51.6716 38.2253C51.4809 38.2833 51.3538 38.2038 51.2496 38.1387C51.1905 38.1018 51.1388 38.0694 51.0871 38.0694C51.0309 38.0694 50.9827 38.1157 50.9275 38.1686C50.8425 38.2502 50.7408 38.3478 50.5675 38.3162Z"
        fill="white" />
    <path
        d="M22.3561 20.8486C22.1625 23.3675 21.998 25.8674 21.8625 28.3481C21.727 30.8161 21.6303 29.633 21.5722 32.1265C22.0561 32.1519 22.54 32.1646 23.0239 32.1646C23.5271 32.1646 24.0207 32.1646 23.597 32.1646C24.2164 32.1646 23.8546 32.1583 24.4934 32.1456C25.1515 32.1328 25.8096 32.1138 26.4677 32.0883C26.5064 31.5286 26.5257 30.9815 26.5257 30.4472C26.5257 29.9002 26.5257 29.3404 26.5257 28.7679C26.5257 26.8342 26.4967 28.5707 26.4386 26.6498C26.3806 24.7288 26.2838 22.7951 26.1483 20.8486H36.9208C36.5724 23.9146 36.3014 26.9614 36.1078 29.9892C35.9336 33.0043 35.8465 36.0448 35.8465 39.1107C35.8465 40.6119 35.8756 42.1067 35.9336 43.5951C35.9917 45.0836 36.0691 46.5847 36.1659 48.0986H25.916C26.0128 46.5847 26.0999 45.0772 26.1773 43.576C26.2547 42.0749 26.3322 40.5737 26.4096 39.0725C25.3063 39.0344 25.1939 39.0026 24.0906 38.9771C23.9142 38.939 22.8303 38.9199 21.7464 38.9199H21.5141V42.8509C21.5141 43.7414 21.5141 44.6192 21.5141 45.4843C21.5141 46.3494 21.5335 47.2208 21.5722 48.0986L11.2933 47.1827L12.1438 29.9892L9.6416 20.8486H22.3561Z"
        fill="white" />
    <path fill-rule="evenodd" clip-rule="evenodd"
        d="M74.1 20.8484L65.6809 26.4338V48.0984H81.7172L89.6685 43.0631V30.6652C89.6685 24.7412 80.7817 21.61 74.1 20.8484ZM75.6551 28.7878V42.0593L79.9916 41.169V32.2481C79.9916 30.3806 77.6499 28.7878 75.6551 28.7878Z"
        fill="white" />
    <path fill-rule="evenodd" clip-rule="evenodd"
        d="M65.7855 53.5692C65.4919 56.4832 64.9927 63.0521 65.3451 66.0155L69.2355 65.3487V61.7927C69.6759 63.4225 71.8781 66.0155 71.8781 66.0155C73.2287 65.4821 74.692 64.4597 75.2547 64.0152L71.8781 60.0887H74.0068C74.3983 59.0515 75.1226 56.5178 74.8877 54.6805L72.8324 52.1616L65.7855 53.5692ZM69.2568 55.9109V58.4142H70.3457L70.8297 56.5825L70.3457 55.9109H69.2568Z"
        fill="white" />
    <path fill-rule="evenodd" clip-rule="evenodd"
        d="M61.5731 52.1616C59.017 52.1616 56.0065 52.6776 54.5296 53.1362C53.222 55.2 51.7463 61.7927 51.7463 63.9138C52.8218 65.2073 54.8698 66.0338 56.1784 66.562C56.3198 66.619 56.4525 66.6726 56.5745 66.7229C58.7886 66.2643 62.5943 64.7165 63.9587 63.9712C63.9587 61.1048 63.9587 56.6332 61.5731 52.1616ZM58.3484 56.4026C58.7642 57.4971 59.5959 59.9796 59.5959 61.1533L57.1008 62.4109C57.1008 60.8506 57.3503 57.4645 58.3484 56.4026Z"
        fill="white" />
</svg>