<svg width="64" height="64" viewBox="0 0 64 64" fill="none" xmlns="http://www.w3.org/2000/svg">
<path d="M39.877 30.6424L51.0035 28.619H59.9247V35.7818H51.0035V38.8774L55.013 38.2098V43.0658L51.0035 43.2579V46.8291L59.3233 45.6151L59.9247 53.1014H44.4879L40.9796 50.1676L41.982 36.4089L39.877 30.6424Z" fill="white"/>
<path d="M28.8156 37.0081L38.8665 35.5307V53.4589L28.5527 51.6893L29.9834 42.3369L28.8156 37.0081Z" fill="white"/>
<path fill-rule="evenodd" clip-rule="evenodd" d="M11.8589 28.2684L4.07617 33.4316V53.4588H18.9004L26.2507 48.804V37.3432C26.2507 31.867 18.0356 28.9725 11.8589 28.2684ZM13.0428 35.3982V47.8105L17.0986 46.9778V38.6344C17.0986 36.8878 14.9085 35.3982 13.0428 35.3982Z" fill="white"/>
<path d="M47.1016 11.7035L53.4935 10.5412V21.0024L58.964 20.305L59.3095 24.6057H49.7505L47.735 22.9203L48.3108 15.0162L47.1016 11.7035Z" fill="white"/>
<path fill-rule="evenodd" clip-rule="evenodd" d="M29.6627 10.5412C26.9918 10.5412 23.846 11.076 22.3029 11.5515C20.9365 13.6909 19.3945 20.5252 19.3945 22.724C20.5183 24.0649 22.6583 24.9217 24.0257 25.4692C24.1734 25.5283 24.3121 25.5839 24.4396 25.636C26.7531 25.1606 30.7298 23.556 32.1556 22.7834C32.1556 19.812 32.1556 15.1766 29.6627 10.5412ZM27.5771 20.57L26.8124 21.2454C26.7489 21.3096 26.6626 21.3457 26.5727 21.3457H25.6347C25.5448 21.3457 25.4585 21.3096 25.3949 21.2454L24.6213 20.57H23.0475C22.9576 20.57 22.8713 20.5339 22.8077 20.4698C22.7441 20.4056 22.7084 20.3185 22.7084 20.2277V18.2356C22.7084 16.3453 24.2265 14.813 26.0992 14.813C27.9719 14.813 29.49 16.3453 29.49 18.2356V20.2277C29.49 20.3185 29.4542 20.4056 29.3907 20.4698C29.3271 20.5339 29.2408 20.57 29.1509 20.57H27.5771ZM26.876 19.2727C26.8509 19.1091 26.8509 18.6434 27.3669 18.3098C27.883 17.9762 28.4935 18.3853 28.6635 18.6937C28.8334 19.0021 28.7704 19.4993 28.4621 19.6252C28.1537 19.7511 27.7509 19.7385 27.4236 19.7196C27.0963 19.7007 26.9012 19.4364 26.876 19.2727ZM24.8313 18.3098C25.3474 18.6434 25.3474 19.1091 25.3222 19.2727C25.297 19.4364 25.1019 19.7007 24.7747 19.7196C24.4474 19.7385 24.0446 19.7511 23.7362 19.6252C23.4278 19.4993 23.3649 19.0021 23.5348 18.6937C23.7047 18.3853 24.3152 17.9762 24.8313 18.3098ZM25.8149 19.5569C25.6674 19.53 25.8954 19.054 26.0831 19.054C26.2708 19.054 26.539 19.463 26.3848 19.5099C26.2864 19.5399 26.2208 19.4988 26.167 19.4652C26.1365 19.4462 26.1098 19.4295 26.0831 19.4295C26.0541 19.4295 26.0292 19.4533 26.0008 19.4806C25.9569 19.5228 25.9044 19.5731 25.8149 19.5569Z" fill="white"/>
<path d="M11.2537 10.5413C11.1538 11.8413 11.0689 13.1316 10.999 14.412C10.9291 15.6858 10.8791 15.0751 10.8491 16.3621C11.0989 16.3752 11.3486 16.3818 11.5984 16.3818C11.8581 16.3818 12.1129 16.3818 11.8942 16.3818C12.2139 16.3818 12.0272 16.3785 12.3568 16.3719C12.6965 16.3654 13.0362 16.3555 13.3758 16.3424C13.3958 16.0535 13.4058 15.7711 13.4058 15.4954C13.4058 15.213 13.4058 14.9241 13.4058 14.6286C13.4058 13.6306 13.3908 14.5269 13.3608 13.5354C13.3309 12.5439 13.2809 11.5459 13.211 10.5413H18.771C18.5912 12.1237 18.4513 13.6963 18.3514 15.259C18.2615 16.8151 18.2165 18.3844 18.2165 19.9668C18.2165 20.7416 18.2315 21.5132 18.2615 22.2814C18.2915 23.0496 18.3314 23.8244 18.3814 24.6058H13.0911C13.1411 23.8244 13.186 23.0463 13.226 22.2715C13.2659 21.4967 13.3059 20.7219 13.3458 19.9472C12.7764 19.9275 12.7184 19.911 12.1489 19.8979C12.0579 19.8782 11.4985 19.8684 10.939 19.8684H10.8192V21.8973C10.8192 22.3569 10.8192 22.81 10.8192 23.2564C10.8192 23.7029 10.8292 24.1527 10.8491 24.6058L5.54388 24.133L5.98287 15.259L4.69141 10.5413H11.2537Z" fill="white"/>
<path fill-rule="evenodd" clip-rule="evenodd" d="M37.9605 10.5411L33.6152 13.4239V24.6057H41.892L45.9959 22.0068V15.6079C45.9959 12.5504 41.4092 10.9342 37.9605 10.5411ZM38.7632 14.6389V21.4887L41.0014 21.0292V16.4248C41.0014 15.461 39.7928 14.6389 38.7632 14.6389Z" fill="white"/>
<path fill-rule="evenodd" clip-rule="evenodd" d="M33.6707 27.4293C33.5192 28.9333 33.2616 32.3237 33.4434 33.8532L35.4514 33.5091V31.6737C35.6787 32.5149 36.8153 33.8532 36.8153 33.8532C37.5124 33.5779 38.2676 33.0502 38.5581 32.8208L36.8153 30.7942H37.914C38.1161 30.2589 38.4899 28.9512 38.3686 28.0029L37.3078 26.7028L33.6707 27.4293ZM35.4624 28.6379V29.93H36.0244L36.2742 28.9846L36.0244 28.6379H35.4624Z" fill="white"/>
<path fill-rule="evenodd" clip-rule="evenodd" d="M31.4957 26.7028C30.1764 26.7028 28.6226 26.9691 27.8604 27.2058C27.1854 28.271 26.4238 31.6737 26.4238 32.7685C26.9789 33.4361 28.0359 33.8627 28.7113 34.1353C28.7843 34.1647 28.8528 34.1924 28.9158 34.2183C30.0585 33.9816 32.0228 33.1827 32.727 32.7981C32.727 31.3186 32.727 29.0107 31.4957 26.7028ZM29.8313 28.8917C30.046 29.4566 30.4752 30.7379 30.4752 31.3437L29.1874 31.9928C29.1874 31.1874 29.3162 29.4398 29.8313 28.8917Z" fill="white"/>
</svg>
